<svg width="26" height="20" viewBox="0 0 26 20" fill="none" xmlns="http://www.w3.org/2000/svg">
<path d="M14.7155 17.9055L13.4471 18.8811C12.91 19.2942 12.0415 19.2942 11.5101 18.8811L0.402812 10.3425C-0.134271 9.92944 -0.134271 9.26147 0.402812 8.85278L11.5101 0.309814C12.0472 -0.103271 12.9157 -0.103271 13.4471 0.309814L14.7155 1.2854C15.2583 1.70288 15.2469 2.38403 14.6926 2.79272L7.8077 7.83765H24.2287C24.9886 7.83765 25.6 8.30786 25.6 8.89233V10.2986C25.6 10.8831 24.9886 11.3533 24.2287 11.3533H7.8077L14.6926 16.3982C15.2526 16.8069 15.264 17.488 14.7155 17.9055Z" fill="black"/>
</svg>
