<svg width="24" height="24" viewBox="0 0 30 31" fill="none" xmlns="http://www.w3.org/2000/svg">
<path d="M14.9999 20.527L6.32381 13.9512L0 18.7441L8.68145 25.3239L8.67818 25.3264L14.0963 29.4329L14.9999 30.1129L15.0032 30.1153L20.4268 26.0048L21.3186 25.3239L30 18.7441L23.6759 13.9512L14.9999 20.527ZM18.6228 24.6375L17.7338 25.3162L14.9999 27.3882L14.9968 27.3859L12.269 25.3184L12.2723 25.3158L3.60144 18.7441L6.32381 16.6808L14.9999 23.2566L23.6759 16.6808L26.3982 18.7441L18.6228 24.6375Z" fill="black"/>
<path d="M8.67818 11.9832L14.0963 16.0897L14.9999 16.7696L15.0032 16.7721L20.4267 12.6616L21.3186 11.9807L30 5.40063L23.6759 0.607422L14.9999 7.18347L6.32381 0.607422L0 5.40063L8.68145 11.9804L8.67818 11.9832ZM3.60144 5.40063L6.32381 3.33731L14.9999 9.91312L23.6759 3.33731L26.3982 5.40063L18.6224 11.294L17.7326 11.9734L14.9996 14.0447L14.9965 14.0424L12.2687 11.9749L12.272 11.9724L3.60144 5.40063Z" fill="black"/>
</svg>
