<svg width="17" height="14" viewBox="0 0 17 14" fill="none" xmlns="http://www.w3.org/2000/svg">
<path fill-rule="evenodd" clip-rule="evenodd" d="M8.155 13.9159C8.155 13.9159 8.15543 13.9162 8.5 13.25C8.84457 13.9162 8.84501 13.9159 8.84501 13.9159C8.62889 14.0277 8.37111 14.0277 8.155 13.9159ZM8.155 13.9159L8.5 13.25L8.84501 13.9159L8.84731 13.9147L8.85269 13.9119L8.87117 13.9022C8.88687 13.8939 8.90926 13.882 8.9379 13.8665C8.99516 13.8356 9.07746 13.7904 9.1812 13.7317C9.3886 13.6142 9.68229 13.442 10.0336 13.2199C10.7346 12.7767 11.6728 12.13 12.6147 11.3181C14.4554 9.7312 16.5 7.35031 16.5 4.5C16.5 1.83579 14.4142 0 12.25 0C10.7026 0 9.34711 0.80151 8.5 2.01995C7.65289 0.80151 6.29736 0 4.75 0C2.58579 0 0.5 1.83579 0.5 4.5C0.5 7.35031 2.54459 9.7312 4.3853 11.3181C5.32717 12.13 6.26538 12.7767 6.96642 13.2199C7.31771 13.442 7.6114 13.6142 7.8188 13.7317C7.92254 13.7904 8.00484 13.8356 8.0621 13.8665C8.09074 13.882 8.11313 13.8939 8.12883 13.9022L8.14731 13.9119L8.15269 13.9147L8.155 13.9159Z" fill="#F2C6C2"/>
</svg>
