<svg width="17" height="17" viewBox="0 0 17 17" fill="none" xmlns="http://www.w3.org/2000/svg">
<path d="M10.4016 1.05859L9.43959 1.43913V3.70131L5.82437 6.31228C5.27829 6.05258 4.67063 5.95006 4.06958 6.01626C3.4739 6.08339 2.90948 6.31798 2.44169 6.69281V7.46459L5.44384 10.382L1.01465 14.8007H2.62137L6.25775 11.1644L8.88988 13.733H9.69328C10.0735 13.2856 10.3126 12.7356 10.3803 12.1523C10.4481 11.5691 10.3414 10.9788 10.0739 10.4561L12.7694 6.9465H15.095L15.4862 6.01626L10.4016 1.05859ZM12.5157 5.84722L12.0611 6.06917L9.02731 10.0332L8.96389 10.5724C9.26825 11.1538 9.35454 11.8251 9.20706 12.4646L7.09289 10.3504L6.28949 9.56818L3.80531 7.14742C4.46263 7.00938 5.14725 7.09493 5.75037 7.39053L6.31066 7.32717L10.391 4.37786L10.6129 3.94442V2.72874L13.7842 5.81548L12.5157 5.84722Z" fill="#333333"/>
</svg>
