<svg width="32" height="32" viewBox="0 0 32 32" fill="none" xmlns="http://www.w3.org/2000/svg">
<path fill-rule="evenodd" clip-rule="evenodd" d="M15.5 4C15.8978 4 16.2794 4.15804 16.5607 4.43934C16.842 4.72064 17 5.10218 17 5.5V14H25.5C25.8978 14 26.2794 14.158 26.5606 14.4393C26.842 14.7206 27 15.1022 27 15.5C27 15.8978 26.842 16.2794 26.5606 16.5607C26.2794 16.842 25.8978 17 25.5 17H17V25.5C17 25.8978 16.842 26.2794 16.5607 26.5606C16.2794 26.842 15.8978 27 15.5 27C15.1022 27 14.7206 26.842 14.4393 26.5606C14.158 26.2794 14 25.8978 14 25.5V17H5.5C5.10218 17 4.72064 16.842 4.43934 16.5607C4.15804 16.2794 4 15.8978 4 15.5C4 15.1022 4.15804 14.7206 4.43934 14.4393C4.72064 14.158 5.10218 14 5.5 14H14V5.5C14 5.10218 14.158 4.72064 14.4393 4.43934C14.7206 4.15804 15.1022 4 15.5 4Z" fill="#24292E"/>
</svg>
